# xmcd
#
# Track frame offsets:
#	150
#	14115
#	28302
#	44372
#	59497
#	78905
#	96217
#	116127
#	129937
#	145270
#
# Disc length: 2143 seconds
#
# Revision: 0
# Processed by: cddbd v1.5.1PL0 Copyright (c) Steve Scherf et al.
# Submitted via: EasyCDDAExtractor 7.5.0.1
#
DISCID=8d085d0a
DTITLE=Antonio Gringo - Poncho e Paz
DYEAR=1900
DGENRE=Gauchesca
TTITLE0=Onde Estás Felicidade?
TTITLE1=Nosso Encontro
TTITLE2=Salseiro de Esporas
TTITLE3=Do Meu Interior
TTITLE4=Presença
TTITLE5=O Agricultor e o Operário
TTITLE6=Poncho e Paz
TTITLE7=Recuedos de Taragui
TTITLE8=Eu, Guarani
TTITLE9=Criança, Semente de Vida
EXTD=
EXTT0=
EXTT1=
EXTT2=
EXTT3=
EXTT4=
EXTT5=
EXTT6=
EXTT7=
EXTT8=
EXTT9=
PLAYORDER=
